<svg xmlns="http://www.w3.org/2000/svg" xmlns:xlink="http://www.w3.org/1999/xlink" width="100" height="100" viewBox="0 0 100 100">
  <defs>
    <clipPath id="clip-path">
      <rect id="Rectangle_860" data-name="Rectangle 860" width="100" height="100" transform="translate(734 441)" fill="#707070"/>
    </clipPath>
  </defs>
  <g id="Mask_Group_5" data-name="Mask Group 5" transform="translate(-734 -441)" clip-path="url(#clip-path)">
    <g id="market" transform="translate(730.774 437.773)">
      <g id="Group_12" data-name="Group 12">
        <path id="Path_20" data-name="Path 20" d="M42.258,20.806l-7.1-12.419A47.879,47.879,0,0,1,82.742,15L71.613,24.355" fill="none" stroke="#000" stroke-linecap="round" stroke-linejoin="round" stroke-width="3.226"/>
        <path id="Path_21" data-name="Path 21" d="M67.1,99.516a43.786,43.786,0,0,1-13.871,2.1,48.4,48.4,0,0,1-31.29-11.452A49.6,49.6,0,0,1,10.645,76.29,48.485,48.485,0,0,1,20,18.065l7.258,12.742a34.348,34.348,0,0,0-8.387,22.419,31.417,31.417,0,0,0,2.9,13.548A34.031,34.031,0,0,0,53.226,87.419a28.254,28.254,0,0,0,6.452-.645Z" fill="none" stroke="#000" stroke-linecap="round" stroke-linejoin="round" stroke-width="3.226"/>
        <path id="Path_22" data-name="Path 22" d="M83.71,37.581l10.968-9.355a48.9,48.9,0,0,1,6.935,25A48.227,48.227,0,0,1,82.9,91.452l-7.1-12.419" fill="none" stroke="#000" stroke-linecap="round" stroke-linejoin="round" stroke-width="3.226"/>
        <path id="Path_23" data-name="Path 23" d="M42.258,20.806a36.3,36.3,0,0,1,10.968-1.774,33.4,33.4,0,0,1,18.548,5.484" fill="none" stroke="#000" stroke-linecap="round" stroke-linejoin="round" stroke-width="3.226"/>
        <path id="Path_24" data-name="Path 24" d="M83.71,37.581a34.4,34.4,0,0,1-8.065,41.452" fill="none" stroke="#000" stroke-linecap="round" stroke-linejoin="round" stroke-width="3.226"/>
        <path id="Path_25" data-name="Path 25" d="M42.258,20.806,35,8.387" fill="none" stroke="#000" stroke-linecap="round" stroke-linejoin="round" stroke-width="3.226"/>
        <path id="Path_26" data-name="Path 26" d="M27.258,30.806,20,18.065" fill="none" stroke="#000" stroke-linecap="round" stroke-linejoin="round" stroke-width="3.226"/>
        <path id="Path_27" data-name="Path 27" d="M67.1,99.516,59.677,86.935" fill="none" stroke="#000" stroke-linecap="round" stroke-linejoin="round" stroke-width="3.226"/>
        <path id="Path_28" data-name="Path 28" d="M82.9,91.452l-7.1-12.419" fill="none" stroke="#000" stroke-linecap="round" stroke-linejoin="round" stroke-width="3.226"/>
        <path id="Path_29" data-name="Path 29" d="M94.677,28.226,83.71,37.581" fill="none" stroke="#000" stroke-linecap="round" stroke-linejoin="round" stroke-width="3.226"/>
        <path id="Path_30" data-name="Path 30" d="M82.742,15,71.774,24.355" fill="none" stroke="#000" stroke-linecap="round" stroke-linejoin="round" stroke-width="3.226"/>
      </g>
      <path id="Path_31" data-name="Path 31" d="M47.419,36.613l-7.258,8.065" fill="none" stroke="#000" stroke-linecap="round" stroke-linejoin="round" stroke-width="3.226"/>
      <path id="Path_32" data-name="Path 32" d="M71.29,34.194l-8.226,5.968" fill="none" stroke="#000" stroke-linecap="round" stroke-linejoin="round" stroke-width="3.226"/>
      <path id="Path_33" data-name="Path 33" d="M57.742,40.161,52.1,36.129" fill="none" stroke="#000" stroke-linecap="round" stroke-linejoin="round" stroke-width="3.226"/>
      <path id="Path_34" data-name="Path 34" d="M66.29,32.9l5,1.29-1.29,5" fill="none" stroke="#000" stroke-linecap="round" stroke-linejoin="round" stroke-width="3.226"/>
      <path id="Path_35" data-name="Path 35" d="M34.677,56.452h7.1V75h-7.1Z" fill="none" stroke="#000" stroke-linecap="round" stroke-linejoin="round" stroke-width="3.226"/>
      <path id="Path_36" data-name="Path 36" d="M47.1,48.71h7.1V75H47.1Z" fill="none" stroke="#000" stroke-linecap="round" stroke-linejoin="round" stroke-width="3.226"/>
      <path id="Path_37" data-name="Path 37" d="M59.516,52.419h7.1V75h-7.1Z" fill="none" stroke="#000" stroke-linecap="round" stroke-linejoin="round" stroke-width="3.226"/>
      <circle id="Ellipse_1" data-name="Ellipse 1" cx="3.226" cy="3.226" r="3.226" transform="translate(46.29 30.968)" fill="none" stroke="#000" stroke-linecap="round" stroke-linejoin="round" stroke-width="3.226"/>
      <circle id="Ellipse_2" data-name="Ellipse 2" cx="3.226" cy="3.226" r="3.226" transform="translate(57.258 38.871)" fill="none" stroke="#000" stroke-linecap="round" stroke-linejoin="round" stroke-width="3.226"/>
      <circle id="Ellipse_3" data-name="Ellipse 3" cx="3.226" cy="3.226" r="3.226" transform="translate(34.677 43.871)" fill="none" stroke="#000" stroke-linecap="round" stroke-linejoin="round" stroke-width="3.226"/>
    </g>
  </g>
</svg>
